<svg xmlns="http://www.w3.org/2000/svg" viewBox="0 0 41 41"><title>timeline-right-s</title><g id="Layer_2" data-name="Layer 2"><g id="Layer_4" data-name="Layer 4"><path d="M20.5,41A20.5,20.5,0,1,1,41,20.5,20.52,20.52,0,0,1,20.5,41Zm0-40A19.5,19.5,0,1,0,40,20.5,19.52,19.52,0,0,0,20.5,1Z" style="fill:#fff"/><path d="M25.1,20.65a.5.5,0,0,1-.35-.15L18.21,14a.5.5,0,0,1,.71-.71l6.54,6.54a.5.5,0,0,1-.35.85Z" style="fill:#fff"/><path d="M18.56,27.31a.5.5,0,0,1-.35-.85l6.54-6.54a.5.5,0,0,1,.71.71l-6.54,6.54A.5.5,0,0,1,18.56,27.31Z" style="fill:#fff"/></g></g></svg>
